<?xml version="1.0" standalone="no"?>
<!DOCTYPE svg PUBLIC "-//W3C//DTD SVG 20010904//EN"
 "http://www.w3.org/TR/2001/REC-SVG-20010904/DTD/svg10.dtd">
<svg version="1.0" xmlns="http://www.w3.org/2000/svg"
 width="450.000000pt" height="450.000000pt" viewBox="0 0 450.000000 450.000000"
 preserveAspectRatio="xMidYMid meet">

<g transform="translate(0.000000,450.000000) scale(0.100000,-0.100000)"
fill="#000000" stroke="none">
<path d="M1455 1950 c-3 -5 -3 -15 1 -21 3 -6 -6 -24 -22 -40 -38 -40 -24 -47
19 -10 42 37 54 30 26 -16 -12 -19 -18 -37 -14 -41 3 -4 10 0 15 8 36 62 66
66 37 5 -9 -19 -12 -35 -7 -35 6 0 18 16 27 35 23 49 37 44 29 -10 -9 -56 10
-61 19 -5 4 22 11 40 16 40 5 0 9 -18 9 -40 0 -22 5 -40 10 -40 6 0 10 18 10
41 0 48 23 50 28 3 6 -48 24 -55 21 -7 -4 56 6 63 27 19 10 -20 21 -36 26 -36
11 0 10 5 -6 45 -19 45 2 49 28 5 9 -17 22 -28 27 -24 5 3 0 18 -11 35 -30 41
-15 57 21 23 38 -36 51 -23 15 15 -20 21 -24 30 -14 34 10 3 10 7 1 17 -9 10
-18 8 -43 -13 -33 -28 -87 -47 -136 -47 -32 0 -134 46 -134 61 0 12 -17 12
-25 -1z"/>
<path d="M2707 1953 c-4 -3 -1 -13 5 -21 10 -12 7 -19 -15 -38 -15 -13 -27
-29 -27 -35 0 -7 15 2 34 20 37 36 59 27 32 -14 -26 -39 -18 -53 10 -17 34 43
48 41 29 -4 -17 -42 -18 -44 -7 -44 5 0 16 16 26 36 21 44 31 37 27 -18 -2
-27 1 -38 8 -34 6 4 11 16 11 26 0 25 10 50 21 50 5 0 9 -18 9 -40 0 -22 5
-40 10 -40 6 0 10 18 10 40 0 22 4 40 9 40 5 0 12 -18 16 -40 4 -22 11 -40 17
-40 6 0 7 15 3 39 -9 52 10 62 29 16 8 -19 20 -35 26 -35 6 0 5 14 -5 37 -21
49 -11 54 25 12 33 -39 40 -29 10 16 -25 38 -6 53 25 19 12 -13 28 -24 36 -24
7 0 2 11 -14 28 -19 19 -25 34 -20 50 7 29 4 28 -58 -10 -45 -28 -61 -33 -115
-33 -55 0 -69 5 -109 33 -50 35 -49 35 -58 25z"/>
</g>
</svg>
